<svg width="107" height="121" viewBox="0 0 107 121" fill="none" xmlns="http://www.w3.org/2000/svg">
<g filter="url(#filter0_d)">
<path d="M15.6055 60.5262C17.3867 53.288 20.6503 46.4244 27.884 44.6251C34.2739 43.0357 42.9456 41.5424 52.9724 41.5424C68.4931 41.5424 80.7668 45.1205 86.3568 47.0943C88.3829 47.8098 89.6455 49.7484 89.6455 51.8972V51.8972C89.6455 55.7348 85.7472 58.4645 82.0555 57.4165C75.1711 55.462 64.3796 53.056 52.9724 53.056C33.7626 53.056 15.4509 61.1548 15.6055 60.5262V60.5262Z" fill="#F8F9FA"/>
<rect x="14.5527" y="73.4946" width="73.3157" height="11.3766" rx="5.68829" transform="rotate(-60 14.5527 73.4946)" fill="#F8F9FA"/>
<rect width="72.6261" height="11.3766" rx="5.68829" transform="matrix(-0.5 -0.866025 -0.866025 0.5 91.8989 72.896)" fill="#F8F9FA"/>
<path d="M14.5527 102.632C14.5527 93.7892 20.2796 85.9925 29.0081 84.5776C35.4716 83.5298 43.7917 82.6316 53.3213 82.6316C68.4667 82.6316 80.714 84.9005 87.2579 86.4326C90.3744 87.1623 92.4475 89.977 92.4475 93.1777V93.1777C92.4475 99.5901 84.3292 103.452 78.7386 100.312C71.7388 96.3795 62.7262 92.746 53.3213 92.746C32.8266 92.746 14.5527 104.737 14.5527 102.632V102.632Z" fill="#F8F9FA"/>
<path d="M79.3962 74.2567L66.7556 52.3625C65.1848 49.6418 66.117 46.1629 68.8376 44.5921C71.5583 43.0213 75.0372 43.9535 76.608 46.6742L89.2486 68.5684C90.8194 71.2891 89.8872 74.768 87.1666 76.3388C84.4459 77.9096 80.967 76.9774 79.3962 74.2567Z" fill="#F8F9FA"/>
<path d="M48.2151 14.9264L35.5744 36.8206C34.0036 39.5413 34.9358 43.0202 37.6565 44.591C40.3772 46.1618 43.8561 45.2296 45.4268 42.5089L58.0675 20.6147C59.6383 17.894 58.7061 14.4151 55.9854 12.8443C53.2647 11.2736 49.7858 12.2057 48.2151 14.9264Z" fill="#F8F9FA"/>
<path d="M86.3561 47.0943C81.4767 45.3714 71.505 42.4262 58.7265 41.7052C55.5522 41.5261 52.9717 44.1198 52.9717 47.2992C52.9717 50.4786 55.5534 53.0406 58.7259 53.251C67.9388 53.8618 76.342 55.7946 82.0549 57.4165C85.7466 58.4645 89.6448 55.7348 89.6448 51.8972C89.6448 49.7484 88.3823 47.8098 86.3561 47.0943Z" fill="#F8F9FA"/>
</g>
<defs>
<filter id="filter0_d" x="0.552734" y="0" width="105.895" height="120.88" filterUnits="userSpaceOnUse" color-interpolation-filters="sRGB">
<feFlood flood-opacity="0" result="BackgroundImageFix"/>
<feColorMatrix in="SourceAlpha" type="matrix" values="0 0 0 0 0 0 0 0 0 0 0 0 0 0 0 0 0 0 127 0" result="hardAlpha"/>
<feOffset dy="4"/>
<feGaussianBlur stdDeviation="7"/>
<feComposite in2="hardAlpha" operator="out"/>
<feColorMatrix type="matrix" values="0 0 0 0 0 0 0 0 0 0 0 0 0 0 0 0 0 0 0.35 0"/>
<feBlend mode="normal" in2="BackgroundImageFix" result="effect1_dropShadow"/>
<feBlend mode="normal" in="SourceGraphic" in2="effect1_dropShadow" result="shape"/>
</filter>
</defs>
</svg>
